<svg width="699" height="295" viewBox="0 0 699 295" fill="none" xmlns="http://www.w3.org/2000/svg">
<g clip-path="url(#clip0_57_2925)">
<path d="M213.268 2.74446C223.419 -1.55595 236.143 -1.08307 244.448 6.16833C232.641 8.24435 221.949 14.4311 214.263 23.6339C211.312 27.1938 208.4 31.4607 203.862 32.3436C201.038 32.893 198.088 31.9474 195.678 30.3772C193.267 28.8069 191.305 26.6517 189.371 24.5211L188.698 24.2711C195.188 15.3579 203.117 7.04487 213.268 2.74446Z" fill="#F0F0F0"/>
<path d="M244.32 6.36159C235.386 4.5097 226.095 5.52104 217.768 9.25194C215.961 10.0233 214.287 11.0747 212.808 12.3675C211.407 13.6735 210.381 15.3308 209.838 17.1674C209.296 18.8695 208.939 20.6734 207.994 22.2143C207.498 22.9959 206.843 23.6638 206.071 24.1742C205.299 24.6847 204.428 25.0261 203.515 25.1762C201.25 25.6093 198.964 25.2024 196.742 24.7267C194.276 24.1986 191.722 23.6109 189.215 24.2303C188.911 24.3053 188.812 23.8294 189.116 23.7545C193.478 22.6769 197.697 25.0768 202.061 24.8602C204.098 24.7592 206.117 24.0435 207.336 22.328C208.403 20.8278 208.773 18.968 209.306 17.2397C209.81 15.4404 210.747 13.7919 212.035 12.4383C213.444 11.0743 215.075 9.96006 216.858 9.14337C220.842 7.24072 225.1 5.97656 229.477 5.39719C234.468 4.70826 239.541 4.87855 244.475 5.90071C244.78 5.9641 244.624 6.42455 244.32 6.36158L244.32 6.36159Z" fill="white"/>
<path d="M220.379 7.89268C219.943 6.4101 220.048 4.82073 220.675 3.4084C221.302 1.99608 222.411 0.852765 223.803 0.182649C224.085 0.048025 224.307 0.480296 224.025 0.615095C222.727 1.23671 221.695 2.30181 221.113 3.61816C220.532 4.93451 220.44 6.4154 220.854 7.79354C220.944 8.09314 220.468 8.19056 220.379 7.89268V7.89268Z" fill="white"/>
<path d="M209.998 16.2681C212.757 17.8053 215.994 18.2458 219.063 17.5017C219.367 17.4277 219.466 17.9036 219.163 17.9775C215.967 18.7458 212.6 18.2806 209.732 16.6746C209.459 16.5213 209.727 16.1156 209.998 16.2681Z" fill="white"/>
<path d="M234.296 5.32908C234.345 5.9379 234.544 6.52495 234.877 7.03752C235.209 7.55008 235.663 7.97211 236.198 8.2657C236.473 8.41542 236.205 8.82098 235.932 8.67224C235.342 8.34511 234.841 7.87841 234.473 7.31291C234.105 6.74742 233.88 6.10035 233.82 5.42822C233.809 5.36535 233.822 5.30063 233.857 5.24723C233.892 5.19384 233.946 5.15577 234.008 5.14075C234.071 5.12794 234.137 5.14054 234.191 5.1758C234.244 5.21107 234.282 5.26615 234.296 5.32908V5.32908Z" fill="white"/>
<path d="M243.454 43.4911C243.28 43.4025 243.105 43.3139 242.927 43.2272C240.577 42.0482 238.134 41.0621 235.624 40.2787C235.431 40.2151 235.234 40.1535 235.04 40.0955C228.972 38.2727 222.618 37.5927 216.302 38.0901C213.789 38.2903 211.295 38.6815 208.841 39.2603C205.452 40.0598 201.841 41.1964 198.485 40.8398C198.135 40.8066 197.786 40.7516 197.443 40.6753L188.445 25.1121C188.442 25.0665 188.436 25.0227 188.433 24.9769L188.046 24.3719C188.17 24.3333 188.3 24.2958 188.425 24.2571C188.497 24.2343 188.571 24.2151 188.643 24.1923C188.692 24.1783 188.74 24.1644 188.784 24.1489C188.8 24.1442 188.816 24.1396 188.829 24.1369C188.872 24.1214 188.914 24.1116 188.953 24.0982C189.679 23.8868 190.407 23.6802 191.138 23.4783C191.142 23.4762 191.142 23.4762 191.148 23.4776C196.704 21.8859 202.43 20.9593 208.205 20.717C208.377 20.7121 208.553 20.705 208.73 20.7072C211.313 20.6473 213.898 20.7988 216.457 21.1601C217.857 21.3625 219.247 21.6356 220.62 21.9785C224.166 22.8713 227.549 24.3166 230.646 26.2612C236.819 30.1387 241.684 35.948 243.333 42.9546C243.376 43.1338 243.416 43.3098 243.454 43.4911Z" fill="#F0F0F0"/>
<path d="M243.237 43.5704C237.217 36.7108 229.191 31.9227 220.296 29.8863C218.389 29.4139 216.42 29.2452 214.461 29.3863C212.556 29.5855 210.74 30.2911 209.2 31.43C207.744 32.463 206.373 33.6884 204.691 34.3492C203.824 34.6746 202.899 34.8132 201.976 34.7559C201.052 34.6985 200.151 34.4466 199.332 34.0165C197.262 32.998 195.682 31.2963 194.195 29.5786C192.543 27.6713 190.858 25.6641 188.483 24.6487C188.196 24.5256 188.403 24.0862 188.691 24.2091C192.822 25.9758 194.746 30.433 198.362 32.8889C200.049 34.0348 202.091 34.6792 204.097 34.044C205.852 33.4886 207.266 32.2262 208.732 31.1675C210.218 30.0345 211.958 29.2826 213.801 28.9775C215.747 28.7371 217.72 28.8296 219.635 29.2512C223.961 30.1317 228.122 31.6871 231.965 33.8605C236.365 36.3167 240.313 39.5077 243.637 43.2955C243.843 43.53 243.441 43.8034 243.237 43.5704H243.237Z" fill="white"/>
<path d="M223.199 30.3734C223.743 28.927 224.783 27.7212 226.134 26.9713C227.485 26.2214 229.058 25.9762 230.573 26.2796C230.879 26.342 230.797 26.8211 230.49 26.7587C229.08 26.4735 227.615 26.702 226.358 27.4029C225.102 28.1038 224.137 29.2309 223.638 30.5807C223.53 30.874 223.091 30.665 223.199 30.3735V30.3734Z" fill="white"/>
<path d="M209.87 30.8088C211.148 33.6979 213.467 35.999 216.365 37.2535C216.653 37.3775 216.445 37.8169 216.158 37.693C213.144 36.382 210.736 33.9824 209.413 30.973C209.287 30.6861 209.745 30.5235 209.87 30.8088V30.8088Z" fill="white"/>
<path d="M235.854 36.7083C235.527 37.224 235.333 37.813 235.289 38.4223C235.246 39.0315 235.355 39.642 235.605 40.1989C235.735 40.4841 235.277 40.6465 235.148 40.3631C234.874 39.7466 234.755 39.0722 234.801 38.3989C234.848 37.7257 235.058 37.0741 235.414 36.501C235.443 36.4441 235.493 36.4005 235.553 36.3789C235.613 36.3573 235.679 36.3595 235.738 36.3848C235.796 36.4126 235.84 36.4621 235.862 36.5227C235.884 36.5832 235.881 36.6499 235.854 36.7083V36.7083Z" fill="white"/>
<path d="M431.767 294.643H193.749V56.5416H431.767V294.643Z" fill="white"/>
<path d="M431.767 294.643H193.749V56.5416H431.767V294.643ZM197.266 291.125H428.251V60.0596H197.266V291.125Z" fill="#F0F0F0"/>
<path d="M395.474 158.898H242.825V164.289H395.474V158.898Z" fill="#536DFE"/>
<path d="M395.474 172.914H242.825V178.304H395.474V172.914Z" fill="#536DFE"/>
<path d="M395.474 186.929H242.825V192.319H395.474V186.929Z" fill="#536DFE"/>
<path d="M233.559 165.901C235.502 165.901 237.076 164.326 237.076 162.383C237.076 160.441 235.502 158.865 233.559 158.865C231.617 158.865 230.043 160.441 230.043 162.383C230.043 164.326 231.617 165.901 233.559 165.901Z" fill="#536DFE"/>
<path d="M395.474 98.5073H242.825V103.898H395.474V98.5073Z" fill="#F0F0F0"/>
<path d="M395.474 112.522H242.825V117.913H395.474V112.522Z" fill="#F0F0F0"/>
<path d="M395.474 126.538H242.825V131.928H395.474V126.538Z" fill="#F0F0F0"/>
<path d="M233.559 104.924C235.502 104.924 237.076 103.349 237.076 101.406C237.076 99.4631 235.502 97.8881 233.559 97.8881C231.617 97.8881 230.043 99.4631 230.043 101.406C230.043 103.349 231.617 104.924 233.559 104.924Z" fill="#F0F0F0"/>
<path d="M395.474 219.876H242.825V225.266H395.474V219.876Z" fill="#F0F0F0"/>
<path d="M395.474 233.891H242.825V239.281H395.474V233.891Z" fill="#F0F0F0"/>
<path d="M395.474 247.906H242.825V253.297H395.474V247.906Z" fill="#F0F0F0"/>
<path d="M233.559 226.292C235.502 226.292 237.076 224.717 237.076 222.775C237.076 220.832 235.502 219.257 233.559 219.257C231.617 219.257 230.043 220.832 230.043 222.775C230.043 224.717 231.617 226.292 233.559 226.292Z" fill="#E5E5E5"/>
<path d="M559.535 200.586H421.044C418.969 200.58 417.287 197.14 417.285 192.892V89.8256C417.285 85.5784 418.969 82.1387 421.044 82.1316H559.535C561.61 82.1369 563.291 85.5775 563.294 89.8256V192.891C563.291 197.138 561.607 200.58 559.535 200.586Z" fill="white"/>
<path d="M559.535 200.586H421.044C418.969 200.58 417.287 197.14 417.285 192.892V89.8256C417.285 85.5784 418.969 82.1387 421.044 82.1316H559.535C561.61 82.1369 563.291 85.5775 563.294 89.8256V192.891C563.291 197.138 561.607 200.58 559.535 200.586ZM421.044 85.209C419.798 85.209 418.79 87.2774 418.788 89.8256V192.891C418.788 195.439 419.798 197.505 421.044 197.507H559.535C560.78 197.507 561.789 195.44 561.791 192.891V89.8256C561.791 87.2775 560.78 85.2117 559.535 85.209L421.044 85.209Z" fill="#E6E6E6"/>
<path d="M509.04 166.169H471.762V168.972H509.04V166.169Z" fill="#536DFE"/>
<path d="M513.689 173.452H466.774V176.255H513.689V173.452Z" fill="#536DFE"/>
<path d="M514.63 130.812C514.628 135.024 513.535 139.164 511.456 142.828C509.377 146.491 506.383 149.553 502.768 151.713C499.153 153.874 495.039 155.06 490.829 155.155C486.619 155.25 482.456 154.251 478.748 152.255L478.743 152.251C474.954 150.209 471.775 147.199 469.528 143.528C467.281 139.857 466.047 135.655 465.952 131.351C465.856 127.047 466.904 122.795 468.986 119.028C471.069 115.261 474.112 112.114 477.807 109.907C481.502 107.699 485.715 106.511 490.018 106.464C494.321 106.416 498.56 107.51 502.302 109.635C506.045 111.76 509.158 114.839 511.323 118.559C513.489 122.279 514.63 126.507 514.63 130.812V130.812Z" fill="#CACACA"/>
<path d="M490.413 129.63C494.068 129.63 497.03 126.666 497.03 123.01C497.03 119.355 494.068 116.391 490.413 116.391C486.759 116.391 483.796 119.355 483.796 123.01C483.796 126.666 486.759 129.63 490.413 129.63Z" fill="white"/>
<path d="M501.712 143.306C494.314 145.904 486.248 145.873 478.872 143.218L478.867 143.215L483.796 133.48H497.03L501.712 143.306Z" fill="white"/>
<path d="M392.719 237.439H496.634V191.86H495.034V235.84H392.719V237.439Z" fill="#3F3D56"/>
<path d="M495.834 208.041C500.69 208.041 504.627 204.103 504.627 199.245C504.627 194.388 500.69 190.449 495.834 190.449C490.978 190.449 487.041 194.388 487.041 199.245C487.041 204.103 490.978 208.041 495.834 208.041Z" fill="#3F3D56"/>
<path d="M200.57 137.464H62.0787C60.004 137.459 58.3223 134.018 58.3196 129.77V26.7043C58.3196 22.457 60.004 19.0173 62.0787 19.0103H200.57C202.645 19.0155 204.326 22.4562 204.329 26.7043V129.769C204.326 134.017 202.642 137.459 200.57 137.464Z" fill="white"/>
<path d="M200.57 137.464H62.0787C60.004 137.459 58.3223 134.018 58.3196 129.77V26.7043C58.3196 22.457 60.004 19.0173 62.0787 19.0103H200.57C202.645 19.0155 204.326 22.4562 204.329 26.7043V129.769C204.326 134.017 202.642 137.459 200.57 137.464ZM62.0787 22.0876C60.8334 22.0876 59.8247 24.1561 59.8229 26.7042V129.769C59.8229 132.318 60.8333 134.383 62.0787 134.386H200.57C201.815 134.386 202.824 132.318 202.826 129.769V26.7043C202.826 24.1561 201.815 22.0903 200.57 22.0877L62.0787 22.0876Z" fill="#E6E6E6"/>
<path d="M162.07 51.2088C155.907 44.6635 147.423 40.798 138.442 40.4432V74.8448L162.07 51.2088Z" fill="#3F3D56"/>
<path d="M162.07 55.4922L138.442 79.1281H171.462C171.474 70.3367 168.112 61.8762 162.07 55.4922V55.4922Z" fill="#E4E4E4"/>
<path d="M171.497 81.6002C171.499 83.7444 171.301 85.884 170.905 87.9914C170.874 88.1583 170.842 88.3235 170.808 88.4887C170.062 92.1647 168.717 95.6928 166.824 98.9312C166.724 99.1049 166.62 99.2786 166.516 99.4489V99.4506C164.652 102.52 162.32 105.279 159.605 107.63C159.47 107.747 159.336 107.863 159.2 107.977C153.365 112.888 146.06 115.711 138.441 116.002V81.6002H171.497Z" fill="#F0F0F0"/>
<path d="M135.101 116.032C135.558 116.032 136.013 116.02 136.466 116.002V81.5994L111.455 106.618C117.839 112.673 126.304 116.043 135.101 116.032V116.032Z" fill="#CACACA"/>
<path d="M135.148 44.6959C130.628 44.6959 126.152 45.5865 121.976 47.3169C117.8 49.0473 114.006 51.5836 110.809 54.7809C107.613 57.9782 105.078 61.774 103.348 65.9515C101.618 70.129 100.728 74.6064 100.728 79.1281H136.548V44.7266C136.083 44.708 135.617 44.6959 135.148 44.6959Z" fill="#536DFE"/>
<path d="M126.937 81.6002L119.7 88.8395L119.463 89.0762L119.458 89.0813L113.147 95.3924L112.907 95.6326L106.089 102.453L105.849 102.693V102.695L101.925 106.618C98.5183 103.404 95.8047 99.5265 93.9518 95.2239C92.0989 90.9214 91.1458 86.285 91.1512 81.6002H126.937Z" fill="#536DFE"/>
<path d="M243.222 175.721H139.308V130.141H140.906V174.121H243.222V175.721Z" fill="#3F3D56"/>
<path d="M140.107 146.323C144.963 146.323 148.9 142.385 148.9 137.527C148.9 132.669 144.963 128.731 140.107 128.731C135.251 128.731 131.314 132.669 131.314 137.527C131.314 142.385 135.251 146.323 140.107 146.323Z" fill="#3F3D56"/>
<path d="M65.6176 183.495C66.188 183.152 66.6762 182.688 67.048 182.136C67.4198 181.584 67.666 180.957 67.7694 180.299C67.8727 179.642 67.8307 178.969 67.6462 178.33C67.4617 177.69 67.1393 177.099 66.7016 176.597L72.6169 117.217L62.7396 117.873L60.0032 176.344C59.2098 177.136 58.7341 178.191 58.6664 179.309C58.5986 180.428 58.9433 181.533 59.6354 182.414C60.3274 183.296 61.3186 183.892 62.4212 184.092C63.5238 184.291 64.6611 184.079 65.6176 183.495V183.495Z" fill="#FFB8B8"/>
<path d="M58.738 115.018L61.3276 134.706L60.9682 146.773L71.8317 147.768L74.0089 137.732L75.2085 111.162C75.2989 109.158 74.6267 107.194 73.3272 105.667C72.0278 104.139 70.1977 103.16 68.2057 102.929V102.929C66.1391 102.688 64.0609 103.27 62.4196 104.549C60.7783 105.828 59.7055 107.702 59.4326 109.765L58.738 115.018Z" fill="#2F2E41"/>
<path d="M100.341 288.253H106.931L110.065 262.826H100.34L100.341 288.253Z" fill="#FFB7B7"/>
<path d="M98.6601 286.101L111.638 286.1H111.638C113.832 286.1 115.935 286.972 117.486 288.524C119.037 290.075 119.909 292.179 119.909 294.373V294.642L98.6605 294.643L98.6601 286.101Z" fill="#2F2E41"/>
<path d="M45.9279 288.253H52.5175L55.6522 262.826H45.9265L45.9279 288.253Z" fill="#FFB7B7"/>
<path d="M44.2466 286.101L57.2244 286.1H57.2249C59.4183 286.1 61.5218 286.972 63.0728 288.524C64.6238 290.075 65.4952 292.179 65.4953 294.373V294.642L44.247 294.643L44.2466 286.101Z" fill="#2F2E41"/>
<path d="M71.5529 93.5697C79.4436 93.5697 85.8403 87.1708 85.8403 79.2773C85.8403 71.3839 79.4436 64.985 71.5529 64.985C63.6622 64.985 57.2655 71.3839 57.2655 79.2773C57.2655 87.1708 63.6622 93.5697 71.5529 93.5697Z" fill="#FFB8B8"/>
<path d="M73.3991 99.3722L63.4839 100.506C61.0729 103.926 59.5095 107.871 58.9229 112.015C58.3363 116.159 58.7433 120.384 60.1102 124.339L67.5917 145.99C67.5917 145.99 57.2061 166.817 57.2061 186.154C57.2061 205.491 37.4275 274.516 37.4275 274.516L65.2678 277.421L77.4155 203.89L94.1556 277.124L113.266 274.012L102.74 177.995L95.7852 146.391L95.4889 130.979C95.4889 130.979 98.4463 119.414 91.0446 112.01L82.0079 99.4134L73.3991 99.3722Z" fill="#2F2E41"/>
<path d="M143.297 150.285C143.268 149.557 143.08 148.843 142.745 148.195C142.411 147.547 141.939 146.98 141.361 146.534C140.784 146.089 140.116 145.775 139.405 145.615C138.693 145.456 137.956 145.454 137.243 145.611L83.3269 108.652L78.7546 118.49L133.473 151.915C133.815 153.095 134.577 154.108 135.616 154.762C136.655 155.416 137.898 155.667 139.109 155.466C140.32 155.265 141.415 154.626 142.187 153.672C142.959 152.717 143.354 151.512 143.297 150.285H143.297Z" fill="#FFB8B8"/>
<path d="M73.9049 120.833L94.1787 128.713L105.579 135.414L112.256 125.497L103.764 118.118L78.8765 102.972C76.9994 101.83 74.7592 101.441 72.6073 101.886C70.4555 102.33 68.5519 103.574 67.2803 105.366V105.366C65.9611 107.226 65.4257 109.53 65.7896 111.781C66.1535 114.032 67.3877 116.05 69.2256 117.398L73.9049 120.833Z" fill="#2F2E41"/>
<path d="M88.2077 74.1732H67.2129V65.0184C71.821 63.1871 76.3303 61.6296 79.0561 65.0184C81.4833 65.0184 83.811 65.9829 85.5273 67.6998C87.2435 69.4166 88.2077 71.7452 88.2077 74.1732V74.1732Z" fill="#2F2E41"/>
<path d="M70.9583 64.1041C58.4073 64.1597 54.8941 79.8419 54.8941 88.7204C54.8941 93.6719 57.1326 95.4428 60.6501 96.042L61.8924 89.4144L64.802 96.3272C65.79 96.3321 66.8281 96.313 67.9042 96.2931L68.8907 94.2611L71.0905 96.2566C79.9012 96.2697 92.7047 95.4827 87.0222 88.7204C79.4098 79.6615 81.8981 64.0557 70.9583 64.1041Z" fill="#2F2E41"/>
<path d="M698.299 295H0.701103C0.515159 295 0.33683 294.926 0.205348 294.795C0.0738655 294.663 0 294.485 0 294.299C0 294.113 0.0738655 293.934 0.205348 293.803C0.33683 293.671 0.515159 293.597 0.701103 293.597H698.299C698.485 293.597 698.663 293.671 698.795 293.803C698.926 293.934 699 294.113 699 294.299C699 294.485 698.926 294.663 698.795 294.795C698.663 294.926 698.485 295 698.299 295Z" fill="#CACACA"/>
<path d="M539.123 260.904C537.763 249.961 530.983 239.179 520.551 235.618C524.665 246.881 524.664 259.237 520.548 270.5C518.945 274.838 516.71 279.495 518.218 283.867C519.157 286.588 521.452 288.669 524.017 289.97C526.583 291.272 529.43 291.892 532.242 292.5L532.796 292.958C537.259 282.875 540.483 271.847 539.123 260.904Z" fill="#F0F0F0"/>
<path d="M520.447 235.824C526.523 242.634 530.299 251.186 531.239 260.265C531.476 262.215 531.404 264.192 531.026 266.12C530.597 267.987 529.677 269.705 528.36 271.095C527.158 272.416 525.775 273.628 524.915 275.218C524.487 276.039 524.237 276.941 524.182 277.865C524.127 278.789 524.267 279.714 524.595 280.58C525.354 282.758 526.85 284.534 528.374 286.219C530.066 288.091 531.853 290.008 532.572 292.489C532.659 292.79 533.121 292.637 533.034 292.337C531.782 288.02 527.593 285.568 525.596 281.68C524.663 279.866 524.272 277.759 525.146 275.844C525.91 274.17 527.335 272.919 528.563 271.592C529.868 270.254 530.825 268.617 531.352 266.824C531.827 264.921 531.975 262.951 531.789 260.999C531.441 256.596 530.403 252.276 528.713 248.195C526.81 243.528 524.123 239.221 520.769 235.46C520.561 235.227 520.241 235.593 520.447 235.824H520.447Z" fill="white"/>
<path d="M531.108 257.324C532.609 256.959 533.932 256.072 534.84 254.822C535.749 253.572 536.183 252.04 536.066 250.499C536.041 250.187 535.556 250.211 535.581 250.523C535.692 251.958 535.287 253.385 534.439 254.547C533.591 255.71 532.356 256.531 530.956 256.862C530.652 256.934 530.806 257.395 531.108 257.324V257.324Z" fill="white"/>
<path d="M529.057 270.505C526.346 268.886 524.344 266.303 523.451 263.273C523.363 262.973 522.902 263.126 522.99 263.425C523.925 266.577 526.013 269.26 528.839 270.94C529.108 271.099 529.325 270.664 529.057 270.505L529.057 270.505Z" fill="white"/>
<path d="M526.359 243.989C525.808 244.251 525.2 244.372 524.59 244.341C523.98 244.31 523.388 244.128 522.866 243.811C522.598 243.648 522.382 244.083 522.647 244.245C523.226 244.592 523.88 244.793 524.554 244.828C525.228 244.864 525.9 244.734 526.512 244.45C526.572 244.428 526.621 244.384 526.65 244.327C526.678 244.27 526.684 244.204 526.666 244.143C526.646 244.082 526.602 244.032 526.545 244.003C526.487 243.974 526.421 243.969 526.359 243.989V243.989Z" fill="white"/>
<path d="M488.75 255.163C488.914 255.27 489.078 255.376 489.243 255.487C491.44 256.932 493.516 258.554 495.45 260.335C495.602 260.471 495.754 260.61 495.902 260.75C500.517 265.092 504.286 270.253 507.018 275.972C508.103 278.248 509.013 280.604 509.74 283.019C510.745 286.353 511.569 290.049 513.558 292.777C513.762 293.064 513.984 293.338 514.222 293.597H532.194C532.235 293.577 532.276 293.56 532.317 293.54L533.035 293.573C533.006 293.445 532.974 293.314 532.945 293.187C532.928 293.113 532.908 293.039 532.891 292.966C532.879 292.916 532.867 292.867 532.859 292.822C532.855 292.806 532.85 292.789 532.846 292.777C532.838 292.732 532.826 292.691 532.817 292.65C532.637 291.915 532.451 291.181 532.26 290.447C532.26 290.443 532.26 290.443 532.256 290.439C530.851 284.83 528.787 279.408 526.105 274.286C526.023 274.134 525.941 273.978 525.851 273.826C524.609 271.559 523.184 269.397 521.591 267.362C520.714 266.25 519.782 265.184 518.798 264.166C516.25 261.543 513.306 259.336 510.073 257.628C503.627 254.224 496.164 252.919 489.275 254.999C489.099 255.052 488.927 255.105 488.75 255.163Z" fill="#F0F0F0"/>
<path d="M488.791 255.391C497.74 257.169 505.902 261.723 512.117 268.406C513.481 269.82 514.613 271.441 515.472 273.209C516.253 274.958 516.551 276.884 516.337 278.787C516.172 280.566 515.798 282.366 516.068 284.154C516.22 285.067 516.563 285.937 517.075 286.708C517.587 287.479 518.256 288.134 519.039 288.628C520.956 289.91 523.22 290.426 525.451 290.854C527.928 291.33 530.509 291.784 532.576 293.332C532.827 293.52 533.103 293.12 532.853 292.933C529.256 290.24 524.435 290.805 520.5 288.903C518.664 288.016 517.084 286.57 516.629 284.515C516.231 282.717 516.616 280.861 516.798 279.061C517.035 277.207 516.814 275.324 516.155 273.575C515.389 271.77 514.322 270.108 512.998 268.661C510.07 265.355 506.641 262.53 502.836 260.29C498.508 257.71 493.77 255.889 488.828 254.906C488.522 254.846 488.487 255.331 488.791 255.391L488.791 255.391Z" fill="white"/>
<path d="M510.243 266.136C511.222 264.941 511.744 263.436 511.717 261.891C511.69 260.346 511.114 258.861 510.093 257.701C509.886 257.467 509.513 257.778 509.72 258.012C510.673 259.091 511.209 260.474 511.232 261.913C511.254 263.352 510.762 264.752 509.843 265.859C509.644 266.1 510.044 266.376 510.243 266.136Z" fill="white"/>
<path d="M516.539 277.896C513.399 278.236 510.246 277.38 507.71 275.498C507.459 275.311 507.182 275.711 507.433 275.897C510.077 277.851 513.359 278.735 516.625 278.374C516.937 278.34 516.848 277.862 516.539 277.896V277.896Z" fill="white"/>
<path d="M498.425 258.349C498.143 258.89 497.73 259.353 497.224 259.696C496.719 260.038 496.136 260.25 495.529 260.311C495.217 260.342 495.306 260.82 495.616 260.79C496.286 260.718 496.93 260.484 497.489 260.107C498.048 259.73 498.507 259.221 498.825 258.626C498.859 258.572 498.872 258.507 498.861 258.444C498.849 258.382 498.814 258.326 498.763 258.288C498.71 258.251 498.645 258.237 498.582 258.249C498.518 258.26 498.462 258.296 498.425 258.349V258.349Z" fill="white"/>
<path d="M134.678 260.904C136.038 249.961 142.817 239.179 153.25 235.618C149.136 246.881 149.137 259.237 153.253 270.5C154.856 274.838 157.09 279.495 155.582 283.867C154.644 286.588 152.349 288.669 149.783 289.97C147.218 291.272 144.37 291.892 141.558 292.5L141.005 292.958C136.541 282.875 133.317 271.847 134.678 260.904Z" fill="#F0F0F0"/>
<path d="M153.354 235.824C147.278 242.634 143.502 251.186 142.562 260.265C142.325 262.215 142.396 264.192 142.774 266.12C143.203 267.987 144.124 269.705 145.441 271.095C146.643 272.416 148.025 273.628 148.885 275.218C149.313 276.039 149.563 276.941 149.619 277.865C149.674 278.789 149.533 279.714 149.206 280.58C148.447 282.758 146.95 284.534 145.426 286.219C143.735 288.091 141.948 290.008 141.228 292.489C141.141 292.79 140.68 292.637 140.767 292.337C142.018 288.02 146.207 285.568 148.205 281.68C149.137 279.866 149.529 277.759 148.655 275.844C147.89 274.17 146.466 272.919 145.237 271.592C143.933 270.254 142.975 268.617 142.449 266.824C141.974 264.921 141.826 262.951 142.012 260.999C142.36 256.596 143.398 252.276 145.088 248.195C146.991 243.528 149.677 239.221 153.032 235.46C153.24 235.227 153.56 235.593 153.354 235.824H153.354Z" fill="white"/>
<path d="M142.692 257.324C141.191 256.959 139.868 256.072 138.96 254.822C138.052 253.572 137.618 252.04 137.735 250.499C137.759 250.187 138.245 250.211 138.22 250.523C138.108 251.958 138.513 253.385 139.361 254.547C140.209 255.71 141.445 256.531 142.845 256.862C143.149 256.934 142.995 257.395 142.692 257.324V257.324Z" fill="white"/>
<path d="M144.743 270.505C147.455 268.886 149.457 266.303 150.349 263.273C150.437 262.973 150.899 263.126 150.811 263.425C149.876 266.577 147.787 269.26 144.962 270.94C144.692 271.099 144.475 270.664 144.743 270.505L144.743 270.505Z" fill="white"/>
<path d="M147.441 243.989C147.993 244.251 148.601 244.372 149.211 244.341C149.82 244.31 150.413 244.128 150.935 243.811C151.202 243.648 151.419 244.083 151.154 244.245C150.575 244.592 149.92 244.793 149.247 244.828C148.573 244.864 147.901 244.734 147.289 244.45C147.229 244.428 147.18 244.384 147.151 244.327C147.122 244.27 147.116 244.204 147.134 244.143C147.155 244.082 147.199 244.032 147.256 244.003C147.314 243.974 147.38 243.969 147.441 243.989V243.989Z" fill="white"/>
<path d="M185.05 255.163C184.886 255.27 184.722 255.376 184.558 255.487C182.361 256.932 180.285 258.554 178.35 260.335C178.198 260.471 178.047 260.61 177.899 260.75C173.284 265.092 169.515 270.253 166.783 275.972C165.698 278.248 164.788 280.604 164.06 283.019C163.056 286.353 162.231 290.049 160.243 292.777C160.038 293.064 159.817 293.338 159.578 293.597H141.606C141.565 293.577 141.524 293.56 141.483 293.54L140.766 293.573C140.795 293.445 140.827 293.314 140.856 293.187C140.872 293.113 140.893 293.039 140.909 292.966C140.921 292.916 140.934 292.867 140.942 292.822C140.946 292.806 140.95 292.789 140.954 292.777C140.963 292.732 140.975 292.691 140.983 292.65C141.164 291.915 141.349 291.181 141.541 290.447C141.541 290.443 141.541 290.443 141.545 290.439C142.949 284.83 145.014 279.408 147.695 274.286C147.777 274.134 147.859 273.978 147.95 273.826C149.191 271.559 150.616 269.397 152.21 267.362C153.086 266.25 154.018 265.184 155.002 264.166C157.55 261.543 160.495 259.336 163.728 257.628C170.174 254.224 177.637 252.919 184.525 254.999C184.702 255.052 184.874 255.105 185.05 255.163Z" fill="#F0F0F0"/>
<path d="M185.01 255.391C176.06 257.169 167.898 261.723 161.683 268.406C160.32 269.82 159.188 271.441 158.329 273.209C157.548 274.958 157.249 276.884 157.464 278.787C157.629 280.566 158.003 282.366 157.733 284.154C157.581 285.067 157.237 285.937 156.725 286.708C156.213 287.479 155.544 288.134 154.762 288.628C152.844 289.91 150.581 290.426 148.35 290.854C145.872 291.33 143.292 291.784 141.224 293.332C140.974 293.52 140.698 293.12 140.948 292.933C144.545 290.24 149.365 290.805 153.3 288.903C155.137 288.016 156.717 286.57 157.172 284.515C157.569 282.717 157.185 280.861 157.003 279.061C156.766 277.207 156.987 275.324 157.645 273.575C158.411 271.77 159.479 270.108 160.803 268.661C163.73 265.355 167.16 262.53 170.964 260.29C175.293 257.71 180.03 255.889 184.972 254.906C185.278 254.846 185.314 255.331 185.01 255.391H185.01Z" fill="white"/>
<path d="M163.558 266.136C162.579 264.941 162.056 263.436 162.084 261.891C162.111 260.346 162.686 258.861 163.707 257.701C163.915 257.467 164.288 257.778 164.08 258.012C163.128 259.091 162.592 260.474 162.569 261.913C162.547 263.352 163.039 264.752 163.957 265.859C164.157 266.1 163.756 266.376 163.558 266.136V266.136Z" fill="white"/>
<path d="M157.262 277.896C160.402 278.236 163.554 277.38 166.091 275.498C166.342 275.311 166.618 275.711 166.367 275.897C163.724 277.851 160.442 278.735 157.175 278.374C156.864 278.34 156.952 277.862 157.262 277.896Z" fill="white"/>
<path d="M175.376 258.349C175.658 258.89 176.071 259.353 176.576 259.696C177.082 260.038 177.664 260.25 178.272 260.311C178.583 260.342 178.495 260.82 178.185 260.79C177.514 260.718 176.871 260.484 176.312 260.107C175.752 259.73 175.294 259.221 174.976 258.626C174.941 258.572 174.929 258.507 174.94 258.444C174.951 258.382 174.986 258.326 175.037 258.288C175.091 258.251 175.156 258.237 175.219 258.249C175.282 258.26 175.339 258.296 175.375 258.349H175.376Z" fill="white"/>
<path d="M589.911 285.597H604.064V294.515H581C581 293.344 581.23 292.185 581.678 291.103C582.126 290.021 582.783 289.037 583.61 288.209C584.437 287.381 585.42 286.724 586.501 286.276C587.582 285.828 588.741 285.597 589.911 285.597V285.597Z" fill="#2F2E41"/>
<path d="M602.491 287.696H595.153L591.661 259.367L602.493 259.368L602.491 287.696Z" fill="#FFB8B8"/>
<path d="M655.739 279.377L649.063 282.428L634.127 258.113L643.978 253.609L655.739 279.377Z" fill="#FFB8B8"/>
<path d="M643.424 282.699L656.298 276.814L660 284.926L639.021 294.516C638.535 293.451 638.263 292.3 638.221 291.13C638.179 289.959 638.368 288.792 638.777 287.695C639.186 286.597 639.807 285.591 640.604 284.734C641.402 283.877 642.36 283.185 643.424 282.699V282.699Z" fill="#2F2E41"/>
<path d="M634.368 192.179C635.071 191.65 635.65 190.972 636.063 190.195C636.476 189.417 636.714 188.559 636.76 187.679C636.805 186.8 636.658 185.921 636.327 185.105C635.997 184.288 635.492 183.555 634.847 182.955L643.474 163.365L632.515 165.224L626.003 183.542C625.068 184.692 624.587 186.145 624.651 187.627C624.716 189.108 625.321 190.514 626.352 191.579C627.383 192.644 628.768 193.293 630.246 193.404C631.723 193.514 633.19 193.079 634.368 192.179V192.179Z" fill="#FFB8B8"/>
<path d="M602.024 280.226H595.013C594.333 280.224 593.679 279.965 593.181 279.502C592.683 279.039 592.378 278.405 592.327 277.726L584.912 175.551C584.884 175.159 584.941 174.766 585.08 174.399C585.219 174.032 585.437 173.7 585.718 173.426C585.998 173.152 586.336 172.942 586.706 172.812C587.076 172.682 587.47 172.634 587.86 172.672L631.997 176.982C632.654 177.046 633.264 177.35 633.713 177.835C634.161 178.32 634.416 178.953 634.428 179.614L635.278 224.684C635.282 224.929 635.33 225.171 635.418 225.399L652.05 268.563C652.178 268.897 652.239 269.253 652.229 269.61C652.219 269.967 652.138 270.319 651.991 270.644C651.843 270.97 651.633 271.263 651.371 271.507C651.11 271.75 650.803 271.939 650.468 272.062L643.363 274.682C642.746 274.91 642.067 274.903 641.455 274.664C640.842 274.426 640.338 273.971 640.037 273.386L619.606 233.626C619.494 233.41 619.413 233.18 619.364 232.942L615.873 216.112C615.772 215.624 615.501 215.188 615.107 214.882C614.714 214.577 614.225 214.421 613.727 214.444C613.23 214.466 612.757 214.665 612.393 215.005C612.029 215.345 611.797 215.804 611.741 216.299L604.7 277.837C604.625 278.495 604.311 279.102 603.817 279.543C603.324 279.983 602.685 280.227 602.024 280.226V280.226Z" fill="#2F2E41"/>
<path d="M605.515 95.6601C613.634 95.6601 620.216 89.0726 620.216 80.9465C620.216 72.8204 613.634 66.2329 605.515 66.2329C597.395 66.2329 590.813 72.8204 590.813 80.9465C590.813 89.0726 597.395 95.6601 605.515 95.6601Z" fill="#FFB8B8"/>
<path d="M587.71 176.141C589.592 177.44 610.795 191.424 634.963 180.301C634.65 177.6 631.634 150.481 634.269 130.488C635.518 121.002 631.744 112.215 623.914 106.378C619.661 103.223 614.645 101.26 609.382 100.691C604.119 100.123 598.8 100.969 593.973 103.142H593.972C593.576 103.32 593.176 103.505 592.774 103.697L587.71 176.141Z" fill="#C5CAE9"/>
<path d="M635.192 180.079C634.819 180.079 634.451 180.001 634.109 179.85C633.768 179.7 633.462 179.48 633.21 179.204L629.994 175.693C629.681 175.349 629.462 174.931 629.357 174.479C629.253 174.026 629.266 173.554 629.396 173.108L636.762 148.158L625.555 124.605C625.064 123.57 624.943 122.397 625.214 121.283C625.453 120.305 625.982 119.423 626.732 118.753C627.482 118.082 628.418 117.655 629.415 117.528C630.413 117.4 631.426 117.578 632.32 118.038C633.214 118.499 633.948 119.219 634.425 120.105L649.575 144.707C650.164 145.663 650.51 146.749 650.582 147.87C650.654 148.991 650.45 150.112 649.988 151.135L637.651 178.492C637.468 178.899 637.187 179.254 636.832 179.525C636.478 179.796 636.062 179.974 635.622 180.044C635.48 180.067 635.336 180.079 635.192 180.079V180.079Z" fill="#C5CAE9"/>
<path opacity="0.2" d="M598.59 176.889H592.716L602.969 128.602L603.561 128.679L601.28 174.328C601.246 175.019 600.947 175.67 600.447 176.147C599.946 176.623 599.281 176.889 598.59 176.889Z" fill="black"/>
<path d="M593.155 188.893C593.733 188.229 594.158 187.446 594.401 186.6C594.644 185.753 594.699 184.864 594.561 183.994C594.423 183.124 594.097 182.295 593.604 181.565C593.112 180.836 592.465 180.223 591.71 179.77L596.085 158.815L585.75 162.91L583.18 182.182C582.504 183.501 582.336 185.023 582.706 186.459C583.076 187.894 583.96 189.144 585.189 189.971C586.419 190.799 587.909 191.146 589.377 190.947C590.845 190.748 592.189 190.018 593.155 188.893V188.893Z" fill="#FFB8B8"/>
<path d="M592.563 176.949C592.461 176.949 592.36 176.943 592.259 176.932L585.995 176.235C585.318 176.158 584.695 175.827 584.251 175.31C583.807 174.792 583.575 174.126 583.601 173.445L586.193 110.673C586.274 108.705 587.069 106.833 588.43 105.408C589.79 103.984 591.623 103.105 593.584 102.935C595.546 102.765 597.502 103.316 599.087 104.485C600.672 105.654 601.777 107.361 602.196 109.286L603.865 116.972L603.857 117.027L595.22 174.652C595.126 175.29 594.806 175.874 594.318 176.295C593.83 176.717 593.207 176.949 592.563 176.949Z" fill="#C5CAE9"/>
<path d="M617.628 93.9181C616.103 94.1797 614.849 92.0559 614.659 90.5621C614.469 89.0682 615.013 87.6383 615.073 86.1541C615.132 84.6699 614.433 82.8663 612.892 82.4263C611.278 81.965 609.781 83.2612 608.128 83.1053C605.825 82.8881 604.668 80.1905 604.389 78.0082C604.11 75.8259 603.891 73.2416 601.896 71.9971C599.908 70.7565 597.448 71.6592 595.163 71.6978C591.301 71.763 587.37 68.8157 586.467 65.1786C586.936 65.3137 587.436 65.2886 587.888 65.1072C588.341 64.9258 588.72 64.5985 588.966 64.1771C589.159 63.7275 589.199 63.2265 589.078 62.7521C588.958 62.2777 588.684 61.8565 588.299 61.5542L592.676 63.6995C592.078 62.4809 592.982 61.0929 594.225 60.6314C595.469 60.17 596.916 60.3772 598.288 60.5906C605.142 61.6563 613.081 61.1311 617.628 66.3612C620.777 69.9839 623.369 76.8774 623.015 81.3378C622.661 85.7982 617.628 93.9181 617.628 93.9181Z" fill="#2F2E41"/>
</g>
<defs>
<clipPath id="clip0_57_2925">
<rect width="699" height="295" fill="white"/>
</clipPath>
</defs>
</svg>
